<?xml version="1.0" encoding="utf-8"?>
<!-- Generator: Adobe Illustrator 24.3.0, SVG Export Plug-In . SVG Version: 6.00 Build 0)  -->
<svg version="1.1" id="Layer_1" xmlns="http://www.w3.org/2000/svg" xmlns:xlink="http://www.w3.org/1999/xlink" x="0px" y="0px"
	 viewBox="0 0 24 24" style="enable-background:new 0 0 24 24;" xml:space="preserve">
<style type="text/css">
	.st0{clip-path:url(#SVGID_2_);}
	.st1{fill:#FFFFFF;}
</style>
<g>
	<defs>
		<rect id="SVGID_1_" width="24" height="24"/>
	</defs>
	<clipPath id="SVGID_2_">
		<use xlink:href="#SVGID_1_"  style="overflow:visible;"/>
	</clipPath>
	<g class="st0">
		<path class="st1" d="M5,15.2c0,0.7-0.3,1.3-0.7,1.8c-0.5,0.5-1.1,0.7-1.8,0.7c-0.7,0-1.3-0.3-1.8-0.7C0.3,16.5,0,15.8,0,15.2
			c0-0.7,0.3-1.3,0.7-1.8c0.5-0.5,1.1-0.7,1.8-0.7H5V15.2z M6.3,15.2c0-0.7,0.3-1.3,0.7-1.8c0.5-0.5,1.1-0.7,1.8-0.7
			c0.7,0,1.3,0.3,1.8,0.7s0.7,1.1,0.7,1.8v6.3c0,0.7-0.3,1.3-0.7,1.8C10.1,23.7,9.5,24,8.8,24c-0.7,0-1.3-0.3-1.8-0.7
			c-0.5-0.5-0.7-1.1-0.7-1.8V15.2z M8.8,5C8.2,5,7.5,4.8,7.1,4.3S6.3,3.2,6.3,2.5c0-0.7,0.3-1.3,0.7-1.8C7.5,0.3,8.2,0,8.8,0
			c0.7,0,1.3,0.3,1.8,0.7c0.5,0.5,0.7,1.1,0.7,1.8V5H8.8z M8.8,6.3c0.7,0,1.3,0.3,1.8,0.7c0.5,0.5,0.7,1.1,0.7,1.8
			c0,0.7-0.3,1.3-0.7,1.8s-1.1,0.7-1.8,0.7H2.5c-0.7,0-1.3-0.3-1.8-0.7C0.3,10.1,0,9.5,0,8.8c0-0.7,0.3-1.3,0.7-1.8
			c0.5-0.5,1.1-0.7,1.8-0.7H8.8z M19,8.8c0-0.7,0.3-1.3,0.7-1.8c0.5-0.5,1.1-0.7,1.8-0.7c0.7,0,1.3,0.3,1.8,0.7
			C23.7,7.5,24,8.2,24,8.8c0,0.7-0.3,1.3-0.7,1.8c-0.5,0.5-1.1,0.7-1.8,0.7H19V8.8z M17.7,8.8c0,0.7-0.3,1.3-0.7,1.8
			c-0.5,0.5-1.1,0.7-1.8,0.7c-0.7,0-1.3-0.3-1.8-0.7s-0.7-1.1-0.7-1.8V2.5c0-0.7,0.3-1.3,0.7-1.8C13.9,0.3,14.5,0,15.2,0
			c0.7,0,1.3,0.3,1.8,0.7c0.5,0.5,0.7,1.1,0.7,1.8V8.8z M15.2,19c0.7,0,1.3,0.3,1.8,0.7c0.5,0.5,0.7,1.1,0.7,1.8
			c0,0.7-0.3,1.3-0.7,1.8c-0.5,0.5-1.1,0.7-1.8,0.7c-0.7,0-1.3-0.3-1.8-0.7c-0.5-0.5-0.7-1.1-0.7-1.8V19H15.2z M15.2,17.7
			c-0.7,0-1.3-0.3-1.8-0.7s-0.7-1.1-0.7-1.8c0-0.7,0.3-1.3,0.7-1.8c0.5-0.5,1.1-0.7,1.8-0.7h6.3c0.7,0,1.3,0.3,1.8,0.7
			c0.5,0.5,0.7,1.1,0.7,1.8c0,0.7-0.3,1.3-0.7,1.8c-0.5,0.5-1.1,0.7-1.8,0.7H15.2z"/>
	</g>
</g>
</svg>
