<?xml version="1.0" encoding="utf-8"?>
<!-- Generator: Adobe Illustrator 24.2.1, SVG Export Plug-In . SVG Version: 6.00 Build 0)  -->
<svg version="1.1" id="Layer_1" xmlns="http://www.w3.org/2000/svg" xmlns:xlink="http://www.w3.org/1999/xlink" x="0px" y="0px"
	 viewBox="0 0 212.8 147.7" style="enable-background:new 0 0 212.8 147.7;" xml:space="preserve">
<style type="text/css">
	.st0{fill:#FFFFFF;}
</style>
<path id="webflow_w" class="st0" d="M157.8,43.2c0,0-17.3,54.2-18.6,58.8c-0.5-4.6-13.1-102-13.1-102C96.6,0,80.9,20.9,72.6,43.2
	c0,0-21,54.4-22.7,59c-0.1-4.3-3.2-58.4-3.2-58.4C44.9,16.6,20.1,0.1,0,0.1l24.2,147.6c30.9-0.1,47.5-21,56.2-43.2
	c0,0,18.5-48,19.3-50.2c0.2,2.1,13.3,93.4,13.3,93.4c30.9,0,47.6-19.6,56.6-41L212.8,0C182.2,0,166.1,20.9,157.8,43.2z"/>
</svg>
