<?xml version="1.0" encoding="utf-8"?>
<!-- Generator: Adobe Illustrator 24.3.0, SVG Export Plug-In . SVG Version: 6.00 Build 0)  -->
<svg version="1.1" id="Layer_1" xmlns="http://www.w3.org/2000/svg" xmlns:xlink="http://www.w3.org/1999/xlink" x="0px" y="0px"
	 viewBox="0 0 24 24" style="enable-background:new 0 0 24 24;" xml:space="preserve">
<style type="text/css">
	.st0{fill:#FFFFFF;}
</style>
<path class="st0" d="M23.5,6.2c-0.1-0.5-0.4-1-0.8-1.3c-0.4-0.4-0.8-0.6-1.3-0.8C19.5,3.6,12,3.6,12,3.6s-7.5,0-9.4,0.5
	c-0.5,0.1-1,0.4-1.3,0.8C0.9,5.3,0.7,5.7,0.5,6.2C0.2,8.1,0,10.1,0,12c0,1.9,0.2,3.9,0.5,5.8c0.1,0.5,0.4,1,0.8,1.3
	c0.4,0.4,0.8,0.6,1.3,0.8c1.9,0.5,9.4,0.5,9.4,0.5s7.5,0,9.4-0.5c0.5-0.1,1-0.4,1.3-0.8c0.4-0.4,0.6-0.8,0.8-1.3
	c0.3-1.9,0.5-3.8,0.5-5.8C24,10.1,23.8,8.1,23.5,6.2z M9.6,15.6V8.4l6.3,3.6L9.6,15.6z"/>
</svg>
